<svg xmlns="http://www.w3.org/2000/svg" width="256" height="256" viewBox="0 0 100 100"><rect width="100" height="100" rx="20" fill="#22a0e6"></rect><path d="M51.89 29.97L38.30 29.97L38.30 76.50Q37.67 76.77 36.45 77.00Q35.24 77.22 33.89 77.22L33.89 77.22Q31.10 77.22 29.93 76.19Q28.76 75.15 28.76 72.72L28.76 72.72L28.76 29.97L12.83 29.97Q12.38 29.34 12.06 28.35Q11.75 27.36 11.75 26.10L11.75 26.10Q11.75 24.12 12.70 23.09Q13.64 22.05 15.26 22.05L15.26 22.05L54.41 22.05Q54.77 22.59 55.09 23.58Q55.40 24.57 55.40 25.74L55.40 25.74Q55.40 29.97 51.89 29.97L51.89 29.97ZM73.22 64.35L73.22 64.35Q73.22 67.59 75.11 68.94Q77 70.29 80.42 70.29L80.42 70.29Q81.95 70.29 83.66 69.84Q85.37 69.39 86.63 68.76L86.63 68.76Q87.26 69.48 87.75 70.38Q88.25 71.28 88.25 72.54L88.25 72.54Q88.25 74.88 85.86 76.41Q83.48 77.94 78.62 77.94L78.62 77.94Q71.87 77.94 67.86 74.93Q63.86 71.91 63.86 64.98L63.86 64.98L63.86 22.95Q64.49 22.77 65.66 22.50Q66.83 22.23 68.18 22.23L68.18 22.23Q70.79 22.23 72.00 23.22Q73.22 24.21 73.22 26.55L73.22 26.55L73.22 35.46L87.17 35.46Q87.53 36.00 87.84 36.99Q88.16 37.98 88.16 39.06L88.16 39.06Q88.16 42.93 84.83 42.93L84.83 42.93L73.22 42.93L73.22 64.35Z" fill="#fff"></path></svg>